# xmcd CD database file
#
# Track frame offsets:
#	182
#	13547
#	27345
#	39220
#	51430
#	59395
#	69377
#	75732
#	87550
#	93607
#	106060
#	117675
#	124952
#	140802
#	156445
#	163955
#	177502
#	191207
#	206895
#	215047
#	229290
#	239092
#	259107
#	277825
#	287697
#	296505
#	308707
#	320562
#
# Disc length: 4328 seconds
#
# Revision: 0
# Processed by: cddbd v1.5.2PL0 Copyright (c) Steve Scherf et al.
# Submitted via: CDex 1.51
#
DISCID=bd10e61c
DTITLE=Malabe/Weiner - Afro-Cuban Rhythms for Drumset
DYEAR=1990
DGENRE=Jazz
TTITLE0=Afro-Cuban 6/8 Feel - Bembe
TTITLE1=6/8 Clave Pattern
TTITLE2=Afro-Cuban 6/8 Feel - Full Drumset
TTITLE3=Afro-Cuban 6/8 Patterns With Backbeats
TTITLE4=Afro-Cuban 6/8 Patterns With Backbeats
TTITLE5=Afro-Cuban 6/8 Feel in a Jazz Setting
TTITLE6=Clave
TTITLE7=Rumba Clave
TTITLE8=Palito Patterns and Cascara
TTITLE9=Cascara
TTITLE10=Cascara
TTITLE11=Bombo Note
TTITLE12=Bell Patterns
TTITLE13=Bongo Bell Patterns
TTITLE14=Cha-Cha Bell
TTITLE15=Guaguanco
TTITLE16=Guaguanco
TTITLE17=Guaguanco on Congas
TTITLE18=Guaguanco Variations for Drumset
TTITLE19=Conga - Folkloric Feel
TTITLE20=Snare and Bass Drum Patterns
TTITLE21=Mozambique
TTITLE22=Songo
TTITLE23=Merengue
TTITLE24=Two Patterns by Frank Malabe
TTITLE25=Medley of Playing Examples
TTITLE26=Medley Without Drumset
TTITLE27=Closing
EXTD=YEAR: 1990
EXTT0=
EXTT1=
EXTT2=
EXTT3=
EXTT4=
EXTT5=
EXTT6=
EXTT7=
EXTT8=
EXTT9=
EXTT10=
EXTT11=
EXTT12=
EXTT13=
EXTT14=
EXTT15=
EXTT16=
EXTT17=
EXTT18=
EXTT19=
EXTT20=
EXTT21=
EXTT22=
EXTT23=
EXTT24=
EXTT25=
EXTT26=
EXTT27=
PLAYORDER=
